#Comment line ignore any data following # character 
#Hierarchical Translation and Rotation (.htr) file 
[Header]	
#Header keywords are followed by a single value 
FileType HTR		#Single word string
DataType HTRS		#Translation followed by rotation and scale data
FileVersion 1		#integer
NumSegments 25		#integer
NumFrames 5		#integer
DataFrameRate 30		#integer, data frame rate in this file
EulerRotationOrder ZYX
CalibrationUnits mm
RotationUnits Degrees
GlobalAxisofGravity Y
BoneLengthAxis Y
ScaleFactor 1.00
[SegmentNames&Hierarchy]
#CHILD	PARENT
BN_Tick_Root GLOBAL
BN_Torso BN_Tick_Root
BN_L_Leg_Front01 BN_Torso
BN_L_Leg_Rear01 BN_Torso
BN_MetalTop BN_Torso
BN_Neck BN_Torso
BN_R_Leg_Front01 BN_Torso
BN_R_Leg_Rear01 BN_Torso
BN_Sack BN_Torso
BN_L_Leg_Front02 BN_L_Leg_Front01
BN_L_Leg_Front03 BN_L_Leg_Front02
BN_L_Leg_Rear02 BN_L_Leg_Rear01
BN_L_Leg_Rear03 BN_L_Leg_Rear02
BN_Head BN_Neck
BN_Needle BN_Head
BN_R_Leg_Front02 BN_R_Leg_Front01
BN_R_Leg_Front03 BN_R_Leg_Front02
BN_R_Leg_Rear02 BN_R_Leg_Rear01
BN_R_Leg_Rear03 BN_R_Leg_Rear02
BN_SackDef01 BN_Sack
BN_SackDef02 BN_Sack
BN_SackDef03 BN_Sack
BN_SackDef04 BN_Sack
BN_SackDef05 BN_Sack
BN_SackDef06 BN_Sack
[BasePosition]
#SegmentName Tx, Ty, Tz, Rx, Ry, Rz, BoneLength
BN_Tick_Root 0.000000 0.000000 0.000000 -90.000000 0.000000 0.000000 10.000000 
BN_Torso 0.000000 0.000000 0.000000 0.000000 0.000000 0.000000 10.000000 
BN_L_Leg_Front01 0.000000 0.000000 0.000000 0.000000 0.000000 0.000000 10.000000 
BN_L_Leg_Rear01 0.000000 0.000000 0.000000 0.000000 0.000000 0.000000 10.000000 
BN_MetalTop 0.000000 0.000000 0.000000 0.000000 0.000000 0.000000 10.000000 
BN_Neck 0.000000 0.000000 0.000000 0.000000 0.000000 0.000000 10.000000 
BN_R_Leg_Front01 0.000000 0.000000 0.000000 0.000000 0.000000 0.000000 10.000000 
BN_R_Leg_Rear01 0.000000 0.000000 0.000000 0.000000 0.000000 0.000000 10.000000 
BN_Sack 0.000000 0.000000 0.000000 0.000000 0.000000 0.000000 10.000000 
BN_L_Leg_Front02 0.000000 0.000000 0.000000 0.000000 0.000000 0.000000 10.000000 
BN_L_Leg_Front03 0.000000 0.000000 0.000000 0.000000 0.000000 0.000000 10.000000 
BN_L_Leg_Rear02 0.000000 0.000000 0.000000 0.000000 0.000000 0.000000 10.000000 
BN_L_Leg_Rear03 0.000000 0.000000 0.000000 0.000000 0.000000 0.000000 10.000000 
BN_Head 0.000000 0.000000 0.000000 0.000000 0.000000 0.000000 10.000000 
BN_Needle 0.000000 0.000000 0.000000 0.000000 0.000000 0.000000 10.000000 
BN_R_Leg_Front02 0.000000 0.000000 0.000000 0.000000 0.000000 0.000000 10.000000 
BN_R_Leg_Front03 0.000000 0.000000 0.000000 0.000000 0.000000 0.000000 10.000000 
BN_R_Leg_Rear02 0.000000 0.000000 0.000000 0.000000 0.000000 0.000000 10.000000 
BN_R_Leg_Rear03 0.000000 0.000000 0.000000 0.000000 0.000000 0.000000 10.000000 
BN_SackDef01 0.000000 0.000000 0.000000 0.000000 0.000000 0.000000 10.000000 
BN_SackDef02 0.000000 0.000000 0.000000 0.000000 0.000000 0.000000 10.000000 
BN_SackDef03 0.000000 0.000000 0.000000 0.000000 0.000000 0.000000 10.000000 
BN_SackDef04 0.000000 0.000000 0.000000 0.000000 0.000000 0.000000 10.000000 
BN_SackDef05 0.000000 0.000000 0.000000 0.000000 0.000000 0.000000 10.000000 
BN_SackDef06 0.000000 0.000000 0.000000 0.000000 0.000000 0.000000 10.000000 
#Beginning of Data. Separated by tabs
#Fr	Tx	Ty	Tz	Rx	Ry	Rz	SF
[BN_Tick_Root]
7 0.000000 750.000122 0.000000 0.000000 0.000000 -0.000020 750.000122
8 0.000000 875.000061 0.000000 0.000000 0.000000 -0.000020 875.000061
9 0.000000 1000.000000 0.000000 0.000000 0.000000 -0.000020 1000.000000
10 0.000000 1125.000000 0.000000 0.000000 0.000000 -0.000020 1125.000000
11 0.000000 1250.000000 0.000000 0.000000 0.000000 -0.000020 1250.000000
[BN_Torso]
7 -11.881788 42.835415 144.259995 -17.780100 0.001897 0.001383 150.953629
8 5.569809 46.361752 156.914474 -17.781202 0.902863 0.000616 163.714951
9 18.645721 63.138008 165.134613 -17.782322 1.803828 -0.000170 177.773758
10 22.461498 67.272423 148.985229 -17.783148 2.702574 -0.000583 165.005142
11 20.547787 53.034187 128.190414 -17.783979 3.601318 -0.001011 140.241287
[BN_L_Leg_Front01]
7 -68.477791 10.734189 -26.804373 3.777951 18.800915 146.811386 74.316254
8 -68.477791 10.734189 -26.804373 2.850365 15.587518 173.048355 74.316254
9 -68.477791 10.734189 -26.804373 -3.006783 11.971040 -161.614578 74.316254
10 -68.477791 10.734189 -26.804373 -12.367982 10.976142 -136.833572 74.316254
11 -68.477791 10.734189 -26.804373 -5.590394 -12.539162 -160.274963 74.316254
[BN_L_Leg_Rear01]
7 -72.133743 -73.994843 -18.268616 142.321533 21.681149 -126.172379 104.939293
8 -72.133743 -73.994843 -18.268616 107.448982 17.887707 -118.479889 104.939293
9 -72.133743 -73.994843 -18.268616 132.819977 6.770004 -144.327545 104.939293
10 -72.133743 -73.994843 -18.268616 114.423805 -4.841135 -173.650558 104.939293
11 -72.133743 -73.994843 -18.268616 141.290955 15.487513 -162.824188 104.939293
[BN_MetalTop]
7 0.000008 13.737477 26.403606 89.073120 -9.941882 -91.373611 29.763546
8 0.000008 13.737477 26.403606 89.708900 -10.197728 -94.335617 29.763546
9 0.000008 13.737477 26.403606 90.240837 -13.138176 -96.000702 29.763546
10 0.000008 13.737477 26.403606 89.976524 -18.427891 -93.911842 29.763546
11 0.000008 13.737477 26.403606 89.034035 -14.608996 -90.657547 29.763546
[BN_Neck]
7 0.000014 95.233284 10.002091 -89.999672 -65.297531 89.999657 95.757088
8 0.000014 95.233284 10.002091 -89.999672 -65.297531 89.999657 95.757088
9 0.000014 95.233284 10.002091 -89.999672 -65.297531 89.999657 95.757088
10 0.000014 95.233284 10.002091 -89.999672 -65.297531 89.999657 95.757088
11 0.000014 95.233284 10.002091 -89.999672 -65.297531 89.999657 95.757088
[BN_R_Leg_Front01]
7 68.477768 10.734107 -26.804314 12.263732 8.139249 -43.792866 74.316193
8 68.477768 10.734107 -26.804314 5.594017 -12.540200 -19.725517 74.316193
9 68.477768 10.734107 -26.804314 -18.790405 -9.668382 17.745489 74.316193
10 68.477768 10.734107 -26.804314 -3.775114 18.798374 33.189018 74.316193
11 68.477768 10.734107 -26.804314 -20.169054 18.991480 1.538564 74.316193
[BN_R_Leg_Rear01]
7 72.133751 -73.994873 -18.268644 -112.581558 -10.310422 -5.319742 104.939331
8 72.133751 -73.994873 -18.268644 -141.288956 15.484635 -17.176619 104.939331
9 72.133751 -73.994873 -18.268644 -135.279572 19.420006 -39.815678 104.939331
10 72.133751 -73.994873 -18.268644 -142.318573 21.679100 -53.828064 104.939331
11 72.133751 -73.994873 -18.268644 -107.447845 17.889828 -61.518997 104.939331
[BN_Sack]
7 -0.000000 -78.024918 33.657791 88.623184 -3.228799 -91.160927 84.974907
8 -0.000000 -78.024918 33.657791 89.035500 -3.649255 -95.362312 84.974907
9 -0.000000 -78.024918 33.657791 89.589722 -6.720423 -98.262810 84.974907
10 -0.000000 -78.024918 33.657791 89.486908 -11.917207 -95.237663 84.974907
11 -0.000000 -78.024918 33.657791 88.534050 -9.048173 -90.967758 84.974907
[BN_L_Leg_Front02]
7 142.805023 -0.000015 -0.000104 -87.407463 -40.708233 -58.183952 142.805023
8 142.805023 -0.000015 -0.000104 -68.020973 -52.445206 -98.636719 142.805023
9 142.805023 -0.000015 -0.000104 -74.408798 -39.585392 -112.854897 142.805023
10 142.805023 -0.000015 -0.000104 -74.710472 -16.019878 -118.092018 142.805023
11 142.805023 -0.000015 -0.000104 -99.105156 -65.528030 -96.863220 142.805023
[BN_L_Leg_Front03]
7 124.143021 -0.000045 0.000007 0.354424 -0.228705 30.642586 124.143021
8 124.143021 -0.000045 0.000007 0.353951 -0.448637 86.871590 124.143021
9 124.143021 -0.000045 0.000007 0.352131 -0.405383 115.348854 124.143021
10 124.143021 -0.000045 0.000007 0.350414 -0.349384 128.755035 124.143021
11 124.143021 -0.000045 0.000007 0.355124 -0.319765 134.658112 124.143021
[BN_L_Leg_Rear02]
7 139.939041 0.000075 -0.000022 -37.395180 -20.965799 82.173141 139.939041
8 139.939041 0.000075 -0.000022 25.340736 -39.747452 4.512764 139.939041
9 139.939041 0.000075 -0.000022 -67.002281 17.991117 9.234605 139.939041
10 139.939041 0.000075 -0.000022 -65.440903 37.364906 -7.335393 139.939041
11 139.939041 0.000075 -0.000022 -75.086174 8.706470 68.159958 139.939041
[BN_L_Leg_Rear03]
7 142.839615 0.000179 -0.000060 0.000258 -0.002333 -102.632980 142.839615
8 142.839615 0.000179 -0.000060 0.000902 0.002167 -44.801430 142.839615
9 142.839615 0.000179 -0.000060 0.000059 -0.002346 -92.873871 142.839615
10 142.839615 0.000179 -0.000060 0.000448 -0.002304 -111.999008 142.839615
11 142.839615 0.000179 -0.000060 0.000209 -0.002338 -100.204651 142.839615
[BN_Head]
7 57.062447 -0.000030 0.000000 0.001822 0.001479 11.877728 57.062447
8 57.062447 -0.000030 0.000000 -0.730425 -0.524055 11.881298 57.062447
9 57.062447 -0.000030 0.000000 -1.462888 -1.049565 11.891587 57.062447
10 57.062447 -0.000030 0.000000 -2.195598 -1.574901 11.908600 57.062447
11 57.062447 -0.000030 0.000000 -2.928590 -2.099911 11.932332 57.062447
[BN_Needle]
7 33.915161 69.677544 -0.000060 0.000003 0.000030 87.896805 77.493217
8 33.915161 69.677544 -0.000060 0.000003 0.000030 87.896805 77.493217
9 33.915161 69.677544 -0.000060 0.000003 0.000030 87.896805 77.493217
10 33.915161 69.677544 -0.000060 0.000003 0.000030 87.896805 77.493217
11 33.915161 69.677544 -0.000060 0.000003 0.000030 87.896805 77.493217
[BN_R_Leg_Front02]
7 142.804947 -0.000060 0.000060 77.466705 -26.350996 124.749771 142.804947
8 142.804947 -0.000060 0.000060 88.346092 -60.929058 118.934288 142.804947
9 142.804947 -0.000060 0.000060 -128.954346 -46.874664 -61.974564 142.804947
10 142.804947 -0.000060 0.000060 79.625603 -56.302860 64.309082 142.804947
11 142.804947 -0.000060 0.000060 10.705608 -67.101479 160.153854 142.804947
[BN_R_Leg_Front03]
7 124.143005 -0.000060 -0.000156 -0.352040 -0.344306 -129.476212 124.143005
8 124.143005 -0.000060 -0.000156 -0.354567 -0.348355 -129.339417 124.143005
9 124.143005 -0.000060 -0.000156 -0.350536 -0.370413 -124.283691 124.143005
10 124.143005 -0.000060 -0.000156 -0.353330 -0.373318 -56.515453 124.143005
11 124.143005 -0.000060 -0.000156 -0.352437 -0.447103 -90.199875 124.143005
[BN_R_Leg_Rear02]
7 139.939011 -0.000149 0.000015 63.934875 36.045040 5.855367 139.939011
8 139.939011 -0.000149 0.000015 74.224533 5.827648 -75.770760 139.939011
9 139.939011 -0.000149 0.000015 56.935253 -24.896086 -104.503563 139.939011
10 139.939011 -0.000149 0.000015 31.945345 -16.938707 -74.423874 139.939011
11 139.939011 -0.000149 0.000015 -5.656178 -30.285681 -27.866301 139.939011
[BN_R_Leg_Rear03]
7 142.839417 0.000075 0.000119 0.002285 -0.000536 116.383873 142.839417
8 142.839417 0.000075 0.000119 0.002336 -0.000234 101.419815 142.839417
9 142.839417 0.000075 0.000119 0.002305 -0.000445 111.881622 142.839417
10 142.839417 0.000075 0.000119 0.002334 -0.000252 102.337006 142.839417
11 142.839417 0.000075 0.000119 0.002298 0.000478 66.484505 142.839417
[BN_SackDef01]
7 249.782272 -3.760844 42.949425 -128.408218 -44.374973 -11.740845 253.475800
8 249.782272 -3.760844 42.949425 -128.408218 -44.374973 -11.740845 253.475800
9 249.782272 -3.760844 42.949425 -128.408218 -44.374973 -11.740845 253.475800
10 249.782272 -3.760844 42.949425 -128.408218 -44.374973 -11.740845 253.475800
11 249.782272 -3.760844 42.949425 -128.408218 -44.374973 -11.740845 253.475800
[BN_SackDef02]
7 138.789795 -62.131748 45.674385 32.077126 -27.375721 -88.781525 158.773758
8 138.789795 -62.131748 45.674385 32.077126 -27.375721 -88.781525 158.773758
9 138.789795 -62.131748 45.674385 32.077126 -27.375721 -88.781525 158.773758
10 138.789795 -62.131748 45.674385 32.077126 -27.375721 -88.781525 158.773758
11 138.789795 -62.131748 45.674385 32.077126 -27.375721 -88.781525 158.773758
[BN_SackDef03]
7 249.782272 -3.760785 -42.949661 18.144459 44.375008 -11.740894 253.475845
8 249.782272 -3.760785 -42.949661 18.144459 44.375008 -11.740894 253.475845
9 249.782272 -3.760785 -42.949661 18.144459 44.375008 -11.740894 253.475845
10 249.782272 -3.760785 -42.949661 18.144459 44.375008 -11.740894 253.475845
11 249.782272 -3.760785 -42.949661 18.144459 44.375008 -11.740894 253.475845
[BN_SackDef04]
7 138.789780 -62.131645 -45.674473 146.059982 27.375723 -88.781555 158.773743
8 138.789780 -62.131645 -45.674473 146.059982 27.375723 -88.781555 158.773743
9 138.789780 -62.131645 -45.674473 146.059982 27.375723 -88.781555 158.773743
10 138.789780 -62.131645 -45.674473 146.059982 27.375723 -88.781555 158.773743
11 138.789780 -62.131645 -45.674473 146.059982 27.375723 -88.781555 158.773743
[BN_SackDef05]
7 118.790161 46.167137 -63.831196 0.155741 51.314110 90.605110 142.537460
8 118.790161 46.167137 -63.831196 0.155741 51.314110 90.605110 142.537460
9 118.790161 46.167137 -63.831196 0.155741 51.314110 90.605110 142.537460
10 118.790161 46.167137 -63.831196 0.155741 51.314110 90.605110 142.537460
11 118.790161 46.167137 -63.831196 0.155741 51.314110 90.605110 142.537460
[BN_SackDef06]
7 118.790207 46.167194 63.831219 152.058487 -51.314072 90.605019 142.537537
8 118.790207 46.167194 63.831219 152.058487 -51.314072 90.605019 142.537537
9 118.790207 46.167194 63.831219 152.058487 -51.314072 90.605019 142.537537
10 118.790207 46.167194 63.831219 152.058487 -51.314072 90.605019 142.537537
11 118.790207 46.167194 63.831219 152.058487 -51.314072 90.605019 142.537537
